# MagicaVoxel @ Ephtracy

# group
o 

# material
mtllib gladiator-2.mtl
usemtl palette

# normals
vn -1 0 0
vn 1 0 0
vn 0 0 1
vn 0 0 -1
vn 0 -1 0
vn 0 1 0

# texcoords
vt 0.724609 0.5
vt 0.822266 0.5
vt 0.845703 0.5
vt 0.849609 0.5

# verts
v -0.3 -0.1 0.1
v -0.3 -0.1 0
v -0.3 -0.1 -0.1
v -0.3 0 0.1
v -0.3 0 0
v -0.3 0.1 0.1
v -0.3 0.1 0
v -0.3 0.1 -0.1
v 0.2 -0.1 0.1
v 0.2 -0.1 -0.1
v 0.2 0 0.1
v 0.2 0 -0.1
v 0.4 0 0.1
v 0.4 0 -0.1
v 0.4 0.1 0.1
v 0.4 0.1 -0.1
v -0.3 -0.1 0.1
v -0.3 0 0.1
v -0.3 0.1 0.1
v -0.2 0 0.1
v -0.2 0.1 0.1
v -0.1 -0.1 0.1
v -0.1 0 0.1
v 0 -0.1 0.1
v 0 0.1 0.1
v 0.1 -0.1 0.1
v 0.1 0.1 0.1
v 0.2 -0.1 0.1
v 0.2 0 0.1
v 0.4 0 0.1
v 0.4 0.1 0.1
v -0.3 -0.1 -0.1
v -0.3 0.1 -0.1
v -0.2 0 -0.1
v -0.2 0.1 -0.1
v -0.1 0 -0.1
v -0.1 0.1 -0.1
v 0 -0.1 -0.1
v 0 0 -0.1
v 0 0.1 -0.1
v 0.1 -0.1 -0.1
v 0.1 0.1 -0.1
v 0.2 -0.1 -0.1
v 0.2 0 -0.1
v 0.4 0 -0.1
v 0.4 0.1 -0.1
v -0.3 -0.1 0.1
v -0.1 -0.1 0.1
v 0 -0.1 0.1
v 0.1 -0.1 0.1
v 0.2 -0.1 0.1
v -0.3 -0.1 0
v -0.1 -0.1 0
v -0.3 -0.1 -0.1
v 0 -0.1 -0.1
v 0.1 -0.1 -0.1
v 0.2 -0.1 -0.1
v 0.2 0 0.1
v 0.4 0 0.1
v 0.2 0 -0.1
v 0.4 0 -0.1
v -0.3 0.1 0.1
v -0.2 0.1 0.1
v 0 0.1 0.1
v 0.1 0.1 0.1
v 0.4 0.1 0.1
v -0.3 0.1 0
v -0.2 0.1 0
v -0.1 0.1 0
v 0 0.1 0
v -0.3 0.1 -0.1
v -0.2 0.1 -0.1
v -0.1 0.1 -0.1
v 0 0.1 -0.1
v 0.1 0.1 -0.1
v 0.4 0.1 -0.1

# faces
f 4/2/1 2/2/1 1/2/1
f 5/3/1 3/3/1 2/3/1
f 5/2/1 2/2/1 4/2/1
f 6/4/1 5/4/1 4/4/1
f 7/3/1 3/3/1 5/3/1
f 7/4/1 5/4/1 6/4/1
f 8/3/1 3/3/1 7/3/1
f 9/3/2 10/3/2 11/3/2
f 11/3/2 10/3/2 12/3/2
f 13/3/2 14/3/2 15/3/2
f 15/3/2 14/3/2 16/3/2
f 20/2/3 18/2/3 17/2/3
f 20/4/3 19/4/3 18/4/3
f 21/4/3 19/4/3 20/4/3
f 22/2/3 20/2/3 17/2/3
f 23/3/3 21/3/3 20/3/3
f 23/2/3 20/2/3 22/2/3
f 24/3/3 23/3/3 22/3/3
f 25/3/3 21/3/3 23/3/3
f 25/3/3 23/3/3 24/3/3
f 26/1/3 25/1/3 24/1/3
f 27/1/3 25/1/3 26/1/3
f 28/3/3 27/3/3 26/3/3
f 29/3/3 27/3/3 28/3/3
f 30/3/3 27/3/3 29/3/3
f 31/3/3 27/3/3 30/3/3
f 32/3/4 33/3/4 34/3/4
f 34/3/4 33/3/4 35/3/4
f 32/3/4 34/3/4 36/3/4
f 34/4/4 35/4/4 36/4/4
f 36/4/4 35/4/4 37/4/4
f 32/3/4 36/3/4 38/3/4
f 36/2/4 37/2/4 39/2/4
f 38/3/4 36/3/4 39/3/4
f 39/2/4 37/2/4 40/2/4
f 38/1/4 39/1/4 41/1/4
f 39/1/4 40/1/4 41/1/4
f 41/1/4 40/1/4 42/1/4
f 41/3/4 42/3/4 43/3/4
f 43/3/4 42/3/4 44/3/4
f 44/3/4 42/3/4 45/3/4
f 45/3/4 42/3/4 46/3/4
f 52/2/5 48/2/5 47/2/5
f 53/3/5 49/3/5 48/3/5
f 53/2/5 48/2/5 52/2/5
f 54/3/5 53/3/5 52/3/5
f 55/1/5 50/1/5 49/1/5
f 55/3/5 53/3/5 54/3/5
f 55/3/5 49/3/5 53/3/5
f 56/3/5 51/3/5 50/3/5
f 56/1/5 50/1/5 55/1/5
f 57/3/5 51/3/5 56/3/5
f 60/3/5 59/3/5 58/3/5
f 61/3/5 59/3/5 60/3/5
f 62/4/6 63/4/6 67/4/6
f 63/3/6 64/3/6 68/3/6
f 67/4/6 63/4/6 68/4/6
f 68/3/6 64/3/6 69/3/6
f 64/1/6 65/1/6 70/1/6
f 69/3/6 64/3/6 70/3/6
f 67/3/6 68/3/6 71/3/6
f 68/4/6 69/4/6 72/4/6
f 71/3/6 68/3/6 72/3/6
f 69/2/6 70/2/6 73/2/6
f 72/4/6 69/4/6 73/4/6
f 70/1/6 65/1/6 74/1/6
f 73/2/6 70/2/6 74/2/6
f 65/3/6 66/3/6 75/3/6
f 74/1/6 65/1/6 75/1/6
f 75/3/6 66/3/6 76/3/6
