# MagicaVoxel @ Ephtracy

# group
o 

# material
mtllib gladiator-15.mtl
usemtl palette

# normals
vn -1 0 0
vn 1 0 0
vn 0 0 1
vn 0 0 -1
vn 0 -1 0
vn 0 1 0

# texcoords
vt 0.724609 0.5
vt 0.818359 0.5
vt 0.822266 0.5
vt 0.845703 0.5
vt 0.849609 0.5

# verts
v -0.3 0 0.1
v -0.3 0 -0.1
v -0.3 0.1 0.1
v -0.3 0.1 -0.1
v -0.1 -0.1 0.1
v -0.1 -0.1 -0.1
v -0.1 0 0.1
v -0.1 0 -0.1
v 0.4 -0.1 0.1
v 0.4 -0.1 -0.1
v 0.4 0 0.1
v 0.4 0 0
v 0.4 0.1 0.1
v 0.4 0.1 0
v 0.4 0.1 -0.1
v -0.3 0 0.1
v -0.3 0.1 0.1
v -0.1 -0.1 0.1
v -0.1 0 0.1
v 0 -0.1 0.1
v 0 0.1 0.1
v 0.1 -0.1 0.1
v 0.1 0.1 0.1
v 0.2 0 0.1
v 0.2 0.1 0.1
v 0.4 -0.1 0.1
v 0.4 0 0.1
v 0.4 0.1 0.1
v -0.3 0 -0.1
v -0.3 0.1 -0.1
v -0.1 -0.1 -0.1
v -0.1 0 -0.1
v 0 -0.1 -0.1
v 0 0.1 -0.1
v 0.1 -0.1 -0.1
v 0.1 0 -0.1
v 0.1 0.1 -0.1
v 0.2 0 -0.1
v 0.2 0.1 -0.1
v 0.3 0 -0.1
v 0.3 0.1 -0.1
v 0.4 -0.1 -0.1
v 0.4 0.1 -0.1
v -0.1 -0.1 0.1
v 0 -0.1 0.1
v 0.1 -0.1 0.1
v 0.4 -0.1 0.1
v -0.1 -0.1 -0.1
v 0 -0.1 -0.1
v 0.1 -0.1 -0.1
v 0.4 -0.1 -0.1
v -0.3 0 0.1
v -0.1 0 0.1
v -0.3 0 -0.1
v -0.1 0 -0.1
v -0.3 0.1 0.1
v 0 0.1 0.1
v 0.1 0.1 0.1
v 0.2 0.1 0.1
v 0.4 0.1 0.1
v 0.1 0.1 0
v 0.2 0.1 0
v 0.3 0.1 0
v 0.4 0.1 0
v -0.3 0.1 -0.1
v 0 0.1 -0.1
v 0.1 0.1 -0.1
v 0.2 0.1 -0.1
v 0.3 0.1 -0.1
v 0.4 0.1 -0.1

# faces
f 3/4/1 2/4/1 1/4/1
f 4/4/1 2/4/1 3/4/1
f 7/4/1 6/4/1 5/4/1
f 8/4/1 6/4/1 7/4/1
f 9/4/2 10/4/2 11/4/2
f 11/4/2 10/4/2 12/4/2
f 11/2/2 12/2/2 13/2/2
f 12/4/2 10/4/2 14/4/2
f 13/2/2 12/2/2 14/2/2
f 14/4/2 10/4/2 15/4/2
f 19/4/3 17/4/3 16/4/3
f 20/4/3 19/4/3 18/4/3
f 21/4/3 17/4/3 19/4/3
f 21/4/3 19/4/3 20/4/3
f 22/1/3 21/1/3 20/1/3
f 23/1/3 21/1/3 22/1/3
f 24/4/3 23/4/3 22/4/3
f 25/4/3 23/4/3 24/4/3
f 26/4/3 24/4/3 22/4/3
f 27/2/3 25/2/3 24/2/3
f 27/4/3 24/4/3 26/4/3
f 28/2/3 25/2/3 27/2/3
f 29/4/4 30/4/4 32/4/4
f 31/4/4 32/4/4 33/4/4
f 32/4/4 30/4/4 34/4/4
f 33/4/4 32/4/4 34/4/4
f 33/1/4 34/1/4 35/1/4
f 35/1/4 34/1/4 36/1/4
f 36/1/4 34/1/4 37/1/4
f 35/4/4 36/4/4 38/4/4
f 36/3/4 37/3/4 38/3/4
f 38/3/4 37/3/4 39/3/4
f 35/4/4 38/4/4 40/4/4
f 38/5/4 39/5/4 40/5/4
f 40/5/4 39/5/4 41/5/4
f 35/4/4 40/4/4 42/4/4
f 40/4/4 41/4/4 42/4/4
f 42/4/4 41/4/4 43/4/4
f 48/4/5 45/4/5 44/4/5
f 49/1/5 46/1/5 45/1/5
f 49/4/5 45/4/5 48/4/5
f 50/4/5 47/4/5 46/4/5
f 50/1/5 46/1/5 49/1/5
f 51/4/5 47/4/5 50/4/5
f 54/4/5 53/4/5 52/4/5
f 55/4/5 53/4/5 54/4/5
f 57/1/6 58/1/6 61/1/6
f 58/4/6 59/4/6 61/4/6
f 59/2/6 60/2/6 62/2/6
f 61/4/6 59/4/6 62/4/6
f 62/2/6 60/2/6 63/2/6
f 63/2/6 60/2/6 64/2/6
f 56/4/6 57/4/6 65/4/6
f 57/1/6 61/1/6 66/1/6
f 65/4/6 57/4/6 66/4/6
f 61/3/6 62/3/6 67/3/6
f 66/1/6 61/1/6 67/1/6
f 62/5/6 63/5/6 68/5/6
f 67/3/6 62/3/6 68/3/6
f 63/4/6 64/4/6 69/4/6
f 68/5/6 63/5/6 69/5/6
f 69/4/6 64/4/6 70/4/6
