# MagicaVoxel @ Ephtracy

# group
o 

# material
mtllib gladiator-11.mtl
usemtl palette

# normals
vn -1 0 0
vn 1 0 0
vn 0 0 1
vn 0 0 -1
vn 0 -1 0
vn 0 1 0

# texcoords
vt 0.822266 0.5
vt 0.845703 0.5
vt 0.849609 0.5

# verts
v -0.2 0 0.1
v -0.2 0 -0.1
v -0.2 0.2 0.1
v -0.2 0.2 -0.1
v 0.2 0 0.1
v 0.2 0 0
v 0.2 0 -0.1
v 0.2 0.1 0.1
v 0.2 0.1 0
v 0.2 0.1 -0.1
v 0.2 0.2 0.1
v 0.2 0.2 0
v 0.2 0.2 -0.1
v -0.2 0 0.1
v -0.2 0.2 0.1
v -0.1 0 0.1
v -0.1 0.1 0.1
v 0 0 0.1
v 0 0.1 0.1
v 0 0.2 0.1
v 0.2 0 0.1
v 0.2 0.1 0.1
v 0.2 0.2 0.1
v -0.2 0 -0.1
v -0.2 0.2 -0.1
v -0.1 0.1 -0.1
v -0.1 0.2 -0.1
v 0 0 -0.1
v 0 0.1 -0.1
v 0.1 0.1 -0.1
v 0.1 0.2 -0.1
v 0.2 0 -0.1
v 0.2 0.1 -0.1
v 0.2 0.2 -0.1
v -0.2 0 0.1
v -0.1 0 0.1
v 0 0 0.1
v 0.2 0 0.1
v -0.1 0 0
v 0 0 0
v 0.2 0 0
v -0.2 0 -0.1
v 0 0 -0.1
v 0.2 0 -0.1
v -0.2 0.2 0.1
v 0 0.2 0.1
v 0.2 0.2 0.1
v -0.1 0.2 0
v 0 0.2 0
v 0.1 0.2 0
v 0.2 0.2 0
v -0.2 0.2 -0.1
v -0.1 0.2 -0.1
v 0.1 0.2 -0.1
v 0.2 0.2 -0.1

# faces
f 3/2/1 2/2/1 1/2/1
f 4/2/1 2/2/1 3/2/1
f 5/2/2 6/2/2 8/2/2
f 6/1/2 7/1/2 9/1/2
f 8/2/2 6/2/2 9/2/2
f 9/1/2 7/1/2 10/1/2
f 8/3/2 9/3/2 11/3/2
f 9/2/2 10/2/2 12/2/2
f 11/3/2 9/3/2 12/3/2
f 12/2/2 10/2/2 13/2/2
f 16/2/3 15/2/3 14/2/3
f 17/2/3 15/2/3 16/2/3
f 18/1/3 17/1/3 16/1/3
f 19/2/3 15/2/3 17/2/3
f 19/1/3 17/1/3 18/1/3
f 20/2/3 15/2/3 19/2/3
f 21/2/3 19/2/3 18/2/3
f 22/3/3 20/3/3 19/3/3
f 22/2/3 19/2/3 21/2/3
f 23/3/3 20/3/3 22/3/3
f 24/2/4 25/2/4 26/2/4
f 26/2/4 25/2/4 27/2/4
f 24/2/4 26/2/4 28/2/4
f 26/1/4 27/1/4 29/1/4
f 28/2/4 26/2/4 29/2/4
f 28/1/4 29/1/4 30/1/4
f 29/1/4 27/1/4 30/1/4
f 30/1/4 27/1/4 31/1/4
f 28/1/4 30/1/4 32/1/4
f 30/2/4 31/2/4 33/2/4
f 32/1/4 30/1/4 33/1/4
f 33/2/4 31/2/4 34/2/4
f 39/2/5 36/2/5 35/2/5
f 39/1/5 37/1/5 36/1/5
f 40/2/5 38/2/5 37/2/5
f 40/1/5 37/1/5 39/1/5
f 41/2/5 38/2/5 40/2/5
f 42/2/5 39/2/5 35/2/5
f 42/2/5 40/2/5 39/2/5
f 43/1/5 41/1/5 40/1/5
f 43/2/5 40/2/5 42/2/5
f 44/1/5 41/1/5 43/1/5
f 45/2/6 46/2/6 48/2/6
f 46/3/6 47/3/6 49/3/6
f 48/2/6 46/2/6 49/2/6
f 49/3/6 47/3/6 50/3/6
f 50/3/6 47/3/6 51/3/6
f 45/2/6 48/2/6 52/2/6
f 48/1/6 49/1/6 53/1/6
f 52/2/6 48/2/6 53/2/6
f 49/1/6 50/1/6 53/1/6
f 50/2/6 51/2/6 54/2/6
f 53/1/6 50/1/6 54/1/6
f 54/2/6 51/2/6 55/2/6
