# MagicaVoxel @ Ephtracy

# group
o 

# material
mtllib gladiator-7.mtl
usemtl palette

# normals
vn -1 0 0
vn 1 0 0
vn 0 0 1
vn 0 0 -1
vn 0 -1 0
vn 0 1 0

# texcoords
vt 0.814453 0.5
vt 0.822266 0.5
vt 0.826172 0.5
vt 0.845703 0.5
vt 0.908203 0.5
vt 0.912109 0.5
vt 0.916016 0.5
vt 0.939453 0.5

# verts
v -0.1 -0.2 0.2
v -0.1 -0.2 -0.3
v -0.1 -0.1 0.2
v -0.1 -0.1 0.1
v -0.1 -0.1 0
v -0.1 -0.1 -0.2
v -0.1 -0.1 -0.3
v -0.1 0 0.1
v -0.1 0 0
v -0.1 0 -0.1
v -0.1 0 -0.2
v -0.1 0 -0.3
v -0.1 0.1 0.1
v -0.1 0.1 0
v -0.1 0.1 -0.1
v -0.1 0.1 -0.2
v -0.1 0.1 -0.3
v -0.1 0.2 0
v -0.1 0.2 -0.2
v -0.1 0.3 0.1
v -0.1 0.3 0
v -0.1 0.3 -0.2
v -0.1 0.3 -0.3
v 0.2 -0.2 0.2
v 0.2 -0.2 0.1
v 0.2 -0.2 -0.3
v 0.2 -0.1 0.2
v 0.2 -0.1 0.1
v 0.2 -0.1 0
v 0.2 -0.1 -0.1
v 0.2 -0.1 -0.2
v 0.2 -0.1 -0.3
v 0.2 0 -0.1
v 0.2 0 -0.2
v 0.2 0 -0.3
v 0.2 0.1 0.1
v 0.2 0.1 0
v 0.2 0.1 -0.2
v 0.2 0.1 -0.3
v 0.2 0.2 0.1
v 0.2 0.2 0
v 0.2 0.2 -0.1
v 0.2 0.2 -0.2
v 0.2 0.2 -0.3
v 0.2 0.3 0.1
v 0.2 0.3 0
v 0.2 0.3 -0.1
v 0.2 0.3 -0.2
v 0.2 0.3 -0.3
v -0.1 -0.2 0.2
v -0.1 -0.1 0.2
v 0 -0.2 0.2
v 0 -0.1 0.2
v 0.2 -0.2 0.2
v 0.2 -0.1 0.2
v -0.1 -0.1 0.1
v -0.1 0 0.1
v -0.1 0.1 0.1
v -0.1 0.3 0.1
v 0 -0.1 0.1
v 0 0 0.1
v 0 0.1 0.1
v 0 0.2 0.1
v 0 0.3 0.1
v 0.1 -0.1 0.1
v 0.1 0 0.1
v 0.1 0.1 0.1
v 0.1 0.2 0.1
v 0.1 0.3 0.1
v 0.2 -0.1 0.1
v 0.2 0.1 0.1
v 0.2 0.2 0.1
v 0.2 0.3 0.1
v -0.1 -0.2 -0.3
v -0.1 -0.1 -0.3
v -0.1 0 -0.3
v -0.1 0.1 -0.3
v -0.1 0.3 -0.3
v 0 -0.1 -0.3
v 0 0 -0.3
v 0 0.1 -0.3
v 0 0.2 -0.3
v 0.1 0 -0.3
v 0.1 0.1 -0.3
v 0.1 0.2 -0.3
v 0.1 0.3 -0.3
v 0.2 -0.2 -0.3
v 0.2 -0.1 -0.3
v 0.2 0 -0.3
v 0.2 0.1 -0.3
v 0.2 0.2 -0.3
v 0.2 0.3 -0.3
v -0.1 -0.2 0.2
v 0 -0.2 0.2
v 0.2 -0.2 0.2
v 0.1 -0.2 0.1
v 0.2 -0.2 0.1
v 0 -0.2 -0.2
v 0.1 -0.2 -0.2
v -0.1 -0.2 -0.3
v 0.2 -0.2 -0.3
v -0.1 -0.1 0.2
v 0 -0.1 0.2
v 0.2 -0.1 0.2
v -0.1 -0.1 0.1
v 0 -0.1 0.1
v 0.1 -0.1 0.1
v 0.2 -0.1 0.1
v -0.1 0.3 0.1
v 0 0.3 0.1
v 0.1 0.3 0.1
v 0.2 0.3 0.1
v -0.1 0.3 0
v 0 0.3 0
v 0.1 0.3 0
v 0.2 0.3 0
v 0.1 0.3 -0.1
v 0.2 0.3 -0.1
v -0.1 0.3 -0.2
v 0.1 0.3 -0.2
v 0.2 0.3 -0.2
v -0.1 0.3 -0.3
v 0.1 0.3 -0.3
v 0.2 0.3 -0.3

# faces
f 3/7/1 2/7/1 1/7/1
f 4/7/1 2/7/1 3/7/1
f 5/7/1 2/7/1 4/7/1
f 6/7/1 2/7/1 5/7/1
f 7/7/1 2/7/1 6/7/1
f 8/8/1 5/8/1 4/8/1
f 9/5/1 6/5/1 5/5/1
f 9/8/1 5/8/1 8/8/1
f 10/5/1 6/5/1 9/5/1
f 11/6/1 7/6/1 6/6/1
f 11/5/1 6/5/1 10/5/1
f 12/6/1 7/6/1 11/6/1
f 13/6/1 9/6/1 8/6/1
f 14/8/1 10/8/1 9/8/1
f 14/6/1 9/6/1 13/6/1
f 15/5/1 11/5/1 10/5/1
f 15/8/1 10/8/1 14/8/1
f 16/8/1 12/8/1 11/8/1
f 16/5/1 11/5/1 15/5/1
f 17/8/1 12/8/1 16/8/1
f 18/3/1 14/3/1 13/3/1
f 18/3/1 15/3/1 14/3/1
f 18/3/1 17/3/1 16/3/1
f 18/3/1 16/3/1 15/3/1
f 19/3/1 17/3/1 18/3/1
f 20/3/1 18/3/1 13/3/1
f 21/4/1 19/4/1 18/4/1
f 21/3/1 18/3/1 20/3/1
f 22/3/1 17/3/1 19/3/1
f 22/4/1 19/4/1 21/4/1
f 23/3/1 17/3/1 22/3/1
f 24/5/2 25/5/2 27/5/2
f 25/7/2 26/7/2 28/7/2
f 27/5/2 25/5/2 28/5/2
f 28/7/2 26/7/2 29/7/2
f 29/7/2 26/7/2 30/7/2
f 30/7/2 26/7/2 31/7/2
f 31/7/2 26/7/2 32/7/2
f 29/5/2 30/5/2 33/5/2
f 30/6/2 31/6/2 33/6/2
f 31/5/2 32/5/2 34/5/2
f 33/6/2 31/6/2 34/6/2
f 34/5/2 32/5/2 35/5/2
f 28/6/2 29/6/2 36/6/2
f 29/5/2 33/5/2 37/5/2
f 36/6/2 29/6/2 37/6/2
f 33/5/2 34/5/2 37/5/2
f 34/6/2 35/6/2 38/6/2
f 37/5/2 34/5/2 38/5/2
f 38/6/2 35/6/2 39/6/2
f 36/2/2 37/2/2 40/2/2
f 37/3/2 38/3/2 41/3/2
f 40/2/2 37/2/2 41/2/2
f 41/3/2 38/3/2 42/3/2
f 38/1/2 39/1/2 43/1/2
f 42/3/2 38/3/2 43/3/2
f 43/1/2 39/1/2 44/1/2
f 40/3/2 41/3/2 45/3/2
f 41/4/2 42/4/2 46/4/2
f 45/3/2 41/3/2 46/3/2
f 42/1/2 43/1/2 47/1/2
f 46/4/2 42/4/2 47/4/2
f 43/4/2 44/4/2 48/4/2
f 47/1/2 43/1/2 48/1/2
f 48/4/2 44/4/2 49/4/2
f 52/7/3 51/7/3 50/7/3
f 53/7/3 51/7/3 52/7/3
f 54/5/3 53/5/3 52/5/3
f 55/5/3 53/5/3 54/5/3
f 60/8/3 57/8/3 56/8/3
f 61/6/3 58/6/3 57/6/3
f 61/8/3 57/8/3 60/8/3
f 62/3/3 59/3/3 58/3/3
f 62/6/3 58/6/3 61/6/3
f 63/3/3 59/3/3 62/3/3
f 64/3/3 59/3/3 63/3/3
f 65/8/3 61/8/3 60/8/3
f 66/5/3 62/5/3 61/5/3
f 66/8/3 61/8/3 65/8/3
f 67/2/3 63/2/3 62/2/3
f 67/5/3 62/5/3 66/5/3
f 68/1/3 64/1/3 63/1/3
f 68/2/3 63/2/3 67/2/3
f 69/1/3 64/1/3 68/1/3
f 70/6/3 66/6/3 65/6/3
f 70/6/3 67/6/3 66/6/3
f 71/2/3 68/2/3 67/2/3
f 71/6/3 67/6/3 70/6/3
f 72/3/3 69/3/3 68/3/3
f 72/2/3 68/2/3 71/2/3
f 73/3/3 69/3/3 72/3/3
f 74/7/4 75/7/4 79/7/4
f 75/6/4 76/6/4 79/6/4
f 76/8/4 77/8/4 80/8/4
f 79/6/4 76/6/4 80/6/4
f 77/3/4 78/3/4 81/3/4
f 80/8/4 77/8/4 81/8/4
f 81/3/4 78/3/4 82/3/4
f 79/5/4 80/5/4 83/5/4
f 80/5/4 81/5/4 83/5/4
f 81/4/4 82/4/4 84/4/4
f 83/5/4 81/5/4 84/5/4
f 82/3/4 78/3/4 85/3/4
f 84/4/4 82/4/4 85/4/4
f 85/3/4 78/3/4 86/3/4
f 74/7/4 79/7/4 87/7/4
f 79/5/4 83/5/4 88/5/4
f 87/7/4 79/7/4 88/7/4
f 83/6/4 84/6/4 89/6/4
f 88/5/4 83/5/4 89/5/4
f 84/1/4 85/1/4 90/1/4
f 89/6/4 84/6/4 90/6/4
f 85/4/4 86/4/4 91/4/4
f 90/1/4 85/1/4 91/1/4
f 91/4/4 86/4/4 92/4/4
f 96/5/5 95/5/5 94/5/5
f 97/5/5 95/5/5 96/5/5
f 98/7/5 94/7/5 93/7/5
f 98/5/5 96/5/5 94/5/5
f 99/7/5 97/7/5 96/7/5
f 99/5/5 96/5/5 98/5/5
f 100/7/5 98/7/5 93/7/5
f 100/7/5 99/7/5 98/7/5
f 101/7/5 97/7/5 99/7/5
f 101/7/5 99/7/5 100/7/5
f 102/7/6 103/7/6 105/7/6
f 103/5/6 104/5/6 106/5/6
f 105/7/6 103/7/6 106/7/6
f 106/5/6 104/5/6 107/5/6
f 107/5/6 104/5/6 108/5/6
f 109/3/6 110/3/6 113/3/6
f 110/1/6 111/1/6 114/1/6
f 113/3/6 110/3/6 114/3/6
f 111/3/6 112/3/6 115/3/6
f 114/1/6 111/1/6 115/1/6
f 115/3/6 112/3/6 116/3/6
f 113/4/6 114/4/6 117/4/6
f 114/4/6 115/4/6 117/4/6
f 115/4/6 116/4/6 117/4/6
f 117/4/6 116/4/6 118/4/6
f 113/4/6 117/4/6 119/4/6
f 117/1/6 118/1/6 120/1/6
f 119/4/6 117/4/6 120/4/6
f 120/1/6 118/1/6 121/1/6
f 119/3/6 120/3/6 122/3/6
f 120/4/6 121/4/6 123/4/6
f 122/3/6 120/3/6 123/3/6
f 123/4/6 121/4/6 124/4/6
